<svg xmlns="http://www.w3.org/2000/svg" xmlns:xlink="http://www.w3.org/1999/xlink" width="298" zoomAndPan="magnify" viewBox="0 0 223.5 72.749999" height="97" preserveAspectRatio="xMidYMid meet" version="1.0"><defs><g/><clipPath id="e09246f8d1"><path d="M 0.132812 0 L 222.867188 0 L 222.867188 55.550781 L 0.132812 55.550781 Z M 0.132812 0 " clip-rule="nonzero"/></clipPath><clipPath id="1adaf774c3"><path d="M 126.628906 1.496094 L 127.84375 4.066406 C 129.050781 6.617188 129 6.847656 123.289062 26.101562 C 120.121094 36.804688 116.824219 46.699219 115.976562 48.085938 C 115.128906 49.46875 113.375 51.253906 112.097656 52.050781 C 110.40625 53.097656 109.976562 53.375 117.570312 53.375 C 120.351562 53.375 124.207031 53.335938 129.46875 53.289062 L 149.160156 53.097656 L 153.714844 44.496094 C 156.476562 39.285156 157.59375 36.941406 156.945312 36.941406 C 156.476562 36.941406 155.101562 38.160156 152.757812 40.402344 C 145.476562 47.367188 138.488281 51.242188 133.746094 51.242188 C 132.039062 51.242188 130.625 50.746094 129.597656 49.710938 C 127.578125 47.675781 127.695312 46.171875 130.636719 36.523438 L 133.15625 28.242188 L 138.03125 28.023438 C 138.996094 27.984375 139.773438 27.953125 140.421875 27.953125 C 142.8125 27.953125 143.332031 28.351562 144.527344 29.886719 C 145.425781 31.035156 146.339844 32.917969 146.570312 34.0625 C 146.832031 35.398438 147.257812 36.105469 147.675781 36.105469 C 147.996094 36.105469 148.324219 35.699219 148.5625 34.839844 C 148.773438 34.113281 149.96875 30.097656 151.234375 25.902344 C 152.5 21.707031 153.527344 17.828125 153.527344 17.261719 C 153.527344 17.160156 153.476562 17.113281 153.386719 17.113281 C 152.960938 17.113281 151.582031 18.136719 149.980469 19.703125 C 145.304688 24.257812 144.011719 24.84375 138.628906 24.84375 C 133.804688 24.84375 133.707031 24.753906 134.800781 21.375 C 135.191406 20.179688 136.546875 15.714844 137.820312 11.472656 L 140.144531 3.746094 L 143.710938 3.746094 C 149.332031 3.746094 154.84375 6.9375 157.761719 11.890625 C 158.878906 13.78125 159.566406 14.859375 160.035156 14.859375 C 160.710938 14.859375 160.960938 12.617188 161.421875 7.316406 L 161.929688 1.476562 Z M 74.679688 1.496094 C 57.445312 1.496094 57.039062 1.523438 57.796875 2.949219 C 59.261719 5.710938 58.554688 9.585938 53.402344 26.878906 C 47.601562 46.339844 46.097656 49.878906 42.648438 51.992188 L 40.246094 53.464844 L 79.152344 53.464844 L 83.527344 45.515625 C 85.929688 41.140625 87.703125 37.371094 87.472656 37.132812 C 87.464844 37.121094 87.445312 37.113281 87.414062 37.113281 C 86.957031 37.113281 84.433594 39.105469 81.59375 41.726562 C 74.976562 47.816406 68.558594 51.195312 64.132812 51.195312 C 62.460938 51.195312 61.066406 50.707031 60.066406 49.699219 C 58.066406 47.6875 58.222656 45.484375 61.066406 36.136719 L 63.464844 28.234375 L 68.210938 28.003906 C 68.75 27.972656 69.257812 27.964844 69.726562 27.964844 C 74.039062 27.964844 75.414062 29.148438 76.640625 33.257812 C 77.109375 34.839844 77.726562 36.144531 78.007812 36.144531 C 78.644531 36.144531 84.214844 17.28125 83.726562 16.792969 C 83.71875 16.78125 83.695312 16.773438 83.667969 16.773438 C 83.328125 16.773438 81.964844 17.988281 80.507812 19.621094 C 78.933594 21.375 76.5625 23.28125 75.234375 23.839844 C 73.722656 24.476562 70.363281 24.84375 67.8125 24.84375 C 65.976562 24.84375 64.5625 24.65625 64.5625 24.238281 C 64.5625 23.898438 65.867188 19.234375 67.460938 13.882812 L 70.363281 4.144531 L 74.816406 4.144531 C 80.828125 4.144531 85.738281 7.117188 88.402344 12.328125 C 89.277344 14.03125 89.867188 14.988281 90.304688 14.988281 C 90.992188 14.988281 91.332031 12.6875 91.820312 7.34375 L 92.355469 1.503906 Z M 112.847656 1.515625 C 105.589844 1.515625 103.546875 2.054688 105.671875 3.367188 C 107.066406 4.234375 106.429688 7.234375 100.917969 25.742188 C 95.046875 45.445312 93.253906 49.628906 89.636719 51.972656 L 87.363281 53.445312 L 97.320312 53.457031 L 107.285156 53.464844 L 105.730469 51.484375 C 104.875 50.386719 104.195312 48.773438 104.207031 47.90625 C 104.257812 45.015625 116.703125 5.042969 117.738281 4.445312 C 122.394531 1.746094 122.085938 1.546875 113.335938 1.515625 C 113.175781 1.515625 113.007812 1.515625 112.847656 1.515625 Z M 34.773438 0 C 30.796875 0 26.800781 0.746094 23.863281 2.191406 C 15.949219 6.097656 11.265625 13.273438 11.15625 21.625 C 11.078125 27.84375 12.609375 29.417969 21.171875 31.910156 C 28.886719 34.152344 30.488281 35.726562 29.953125 40.519531 C 29.511719 44.425781 26.464844 48.574219 22.238281 51.003906 C 20.363281 52.082031 18.640625 52.621094 16.976562 52.621094 C 15.429688 52.621094 13.945312 52.160156 12.441406 51.234375 C 9.332031 49.320312 7.746094 46.132812 7.121094 40.480469 L 6.613281 35.917969 L 2.996094 42.832031 C -1.230469 50.925781 -1.160156 51.203125 5.765625 53.417969 C 9.023438 54.453125 12.292969 54.960938 15.480469 54.960938 C 24.46875 54.960938 32.730469 50.964844 37.785156 43.710938 C 42.109375 37.5 43.265625 29.230469 40.347656 25.214844 C 39.789062 24.445312 36.0625 22.78125 31.945312 21.457031 C 25.199219 19.285156 24.429688 18.84375 23.253906 16.472656 C 21.421875 12.777344 22.527344 9.277344 26.78125 5.332031 C 29.621094 2.691406 30.597656 2.234375 33.359375 2.234375 C 38.292969 2.234375 41.222656 5.988281 41.550781 12.726562 C 41.652344 14.820312 41.902344 16.523438 42.109375 16.523438 C 42.835938 16.503906 48.867188 4.394531 48.46875 3.746094 C 48.238281 3.378906 46.136719 2.351562 43.773438 1.457031 C 41.183594 0.488281 37.984375 0 34.773438 0 Z M 223.367188 1.433594 L 215.933594 1.644531 L 208.5 1.863281 L 201.003906 14.070312 C 196.886719 20.789062 192.53125 27.90625 191.347656 29.886719 L 189.175781 33.496094 L 188.496094 31.234375 C 188.117188 29.988281 187.621094 22.78125 187.378906 15.21875 L 186.953125 1.496094 L 171.953125 1.496094 L 175.472656 5.273438 L 170.429688 22.402344 C 164.519531 42.496094 162.84375 46.339844 158.230469 50.4375 L 154.800781 53.476562 L 162.007812 53.476562 C 165.972656 53.476562 169.214844 53.277344 169.214844 53.039062 C 169.214844 52.796875 168.546875 51.734375 167.71875 50.675781 C 166.890625 49.621094 166.222656 47.734375 166.222656 46.492188 C 166.222656 44.058594 175.011719 13.664062 176.058594 12.46875 C 176.070312 12.457031 176.070312 12.457031 176.078125 12.457031 C 176.417969 12.457031 176.6875 21.914062 176.6875 33.792969 C 176.6875 45.792969 176.945312 55.46875 177.277344 55.46875 C 177.277344 55.46875 177.285156 55.46875 177.285156 55.46875 C 177.613281 55.269531 184.09375 45.054688 191.667969 32.796875 C 199.121094 20.730469 205.328125 11.082031 205.628906 11.082031 C 205.636719 11.082031 205.636719 11.082031 205.636719 11.09375 C 205.746094 11.421875 203.324219 19.992188 200.265625 30.148438 C 195.144531 47.128906 194.488281 48.800781 192.054688 51.054688 L 189.402344 53.507812 L 199.230469 53.507812 C 208.675781 53.507812 209.007812 53.457031 207.820312 52.140625 C 205.21875 49.242188 205.558594 46.980469 211.71875 26.390625 C 217.4375 7.246094 217.796875 6.320312 220.507812 3.945312 Z M 223.367188 1.433594 " clip-rule="nonzero"/></clipPath><clipPath id="b775087056"><path d="M 0.132812 0 L 222.867188 0 L 222.867188 55.488281 L 0.132812 55.488281 Z M 0.132812 0 " clip-rule="nonzero"/></clipPath><clipPath id="e96c8b3efe"><path d="M 126.628906 1.496094 L 127.84375 4.066406 C 129.050781 6.617188 129 6.847656 123.289062 26.101562 C 120.121094 36.804688 116.824219 46.699219 115.976562 48.085938 C 115.128906 49.46875 113.375 51.253906 112.097656 52.050781 C 110.40625 53.097656 109.976562 53.375 117.570312 53.375 C 120.351562 53.375 124.207031 53.335938 129.46875 53.289062 L 149.160156 53.097656 L 153.714844 44.496094 C 156.476562 39.285156 157.59375 36.941406 156.945312 36.941406 C 156.476562 36.941406 155.101562 38.160156 152.757812 40.402344 C 145.476562 47.367188 138.488281 51.242188 133.746094 51.242188 C 132.039062 51.242188 130.625 50.746094 129.597656 49.710938 C 127.578125 47.675781 127.695312 46.171875 130.636719 36.523438 L 133.15625 28.242188 L 138.03125 28.023438 C 138.996094 27.984375 139.773438 27.953125 140.421875 27.953125 C 142.8125 27.953125 143.332031 28.351562 144.527344 29.886719 C 145.425781 31.035156 146.339844 32.917969 146.570312 34.0625 C 146.832031 35.398438 147.257812 36.105469 147.675781 36.105469 C 147.996094 36.105469 148.324219 35.699219 148.5625 34.839844 C 148.773438 34.113281 149.96875 30.097656 151.234375 25.902344 C 152.5 21.707031 153.527344 17.828125 153.527344 17.261719 C 153.527344 17.160156 153.476562 17.113281 153.386719 17.113281 C 152.960938 17.113281 151.582031 18.136719 149.980469 19.703125 C 145.304688 24.257812 144.011719 24.84375 138.628906 24.84375 C 133.804688 24.84375 133.707031 24.753906 134.800781 21.375 C 135.191406 20.179688 136.546875 15.714844 137.820312 11.472656 L 140.144531 3.746094 L 143.710938 3.746094 C 149.332031 3.746094 154.84375 6.9375 157.761719 11.890625 C 158.878906 13.78125 159.566406 14.859375 160.035156 14.859375 C 160.710938 14.859375 160.960938 12.617188 161.421875 7.316406 L 161.929688 1.476562 Z M 74.679688 1.496094 C 57.445312 1.496094 57.039062 1.523438 57.796875 2.949219 C 59.261719 5.710938 58.554688 9.585938 53.402344 26.878906 C 47.601562 46.339844 46.097656 49.878906 42.648438 51.992188 L 40.246094 53.464844 L 79.152344 53.464844 L 83.527344 45.515625 C 85.929688 41.140625 87.703125 37.371094 87.472656 37.132812 C 87.464844 37.121094 87.445312 37.113281 87.414062 37.113281 C 86.957031 37.113281 84.433594 39.105469 81.59375 41.726562 C 74.976562 47.816406 68.558594 51.195312 64.132812 51.195312 C 62.460938 51.195312 61.066406 50.707031 60.066406 49.699219 C 58.066406 47.6875 58.222656 45.484375 61.066406 36.136719 L 63.464844 28.234375 L 68.210938 28.003906 C 68.75 27.972656 69.257812 27.964844 69.726562 27.964844 C 74.039062 27.964844 75.414062 29.148438 76.640625 33.257812 C 77.109375 34.839844 77.726562 36.144531 78.007812 36.144531 C 78.644531 36.144531 84.214844 17.28125 83.726562 16.792969 C 83.71875 16.78125 83.695312 16.773438 83.667969 16.773438 C 83.328125 16.773438 81.964844 17.988281 80.507812 19.621094 C 78.933594 21.375 76.5625 23.28125 75.234375 23.839844 C 73.722656 24.476562 70.363281 24.84375 67.8125 24.84375 C 65.976562 24.84375 64.5625 24.65625 64.5625 24.238281 C 64.5625 23.898438 65.867188 19.234375 67.460938 13.882812 L 70.363281 4.144531 L 74.816406 4.144531 C 80.828125 4.144531 85.738281 7.117188 88.402344 12.328125 C 89.277344 14.03125 89.867188 14.988281 90.304688 14.988281 C 90.992188 14.988281 91.332031 12.6875 91.820312 7.34375 L 92.355469 1.503906 Z M 112.847656 1.515625 C 105.589844 1.515625 103.546875 2.054688 105.671875 3.367188 C 107.066406 4.234375 106.429688 7.234375 100.917969 25.742188 C 95.046875 45.445312 93.253906 49.628906 89.636719 51.972656 L 87.363281 53.445312 L 97.320312 53.457031 L 107.285156 53.464844 L 105.730469 51.484375 C 104.875 50.386719 104.195312 48.773438 104.207031 47.90625 C 104.257812 45.015625 116.703125 5.042969 117.738281 4.445312 C 122.394531 1.746094 122.085938 1.546875 113.335938 1.515625 C 113.175781 1.515625 113.007812 1.515625 112.847656 1.515625 Z M 34.773438 0 C 30.796875 0 26.800781 0.746094 23.863281 2.191406 C 15.949219 6.097656 11.265625 13.273438 11.15625 21.625 C 11.078125 27.84375 12.609375 29.417969 21.171875 31.910156 C 28.886719 34.152344 30.488281 35.726562 29.953125 40.519531 C 29.511719 44.425781 26.464844 48.574219 22.238281 51.003906 C 20.363281 52.082031 18.640625 52.621094 16.976562 52.621094 C 15.429688 52.621094 13.945312 52.160156 12.441406 51.234375 C 9.332031 49.320312 7.746094 46.132812 7.121094 40.480469 L 6.613281 35.917969 L 2.996094 42.832031 C -1.230469 50.925781 -1.160156 51.203125 5.765625 53.417969 C 9.023438 54.453125 12.292969 54.960938 15.480469 54.960938 C 24.46875 54.960938 32.730469 50.964844 37.785156 43.710938 C 42.109375 37.5 43.265625 29.230469 40.347656 25.214844 C 39.789062 24.445312 36.0625 22.78125 31.945312 21.457031 C 25.199219 19.285156 24.429688 18.84375 23.253906 16.472656 C 21.421875 12.777344 22.527344 9.277344 26.78125 5.332031 C 29.621094 2.691406 30.597656 2.234375 33.359375 2.234375 C 38.292969 2.234375 41.222656 5.988281 41.550781 12.726562 C 41.652344 14.820312 41.902344 16.523438 42.109375 16.523438 C 42.835938 16.503906 48.867188 4.394531 48.46875 3.746094 C 48.238281 3.378906 46.136719 2.351562 43.773438 1.457031 C 41.183594 0.488281 37.984375 0 34.773438 0 Z M 223.367188 1.433594 L 215.933594 1.644531 L 208.5 1.863281 L 201.003906 14.070312 C 196.886719 20.789062 192.53125 27.90625 191.347656 29.886719 L 189.175781 33.496094 L 188.496094 31.234375 C 188.117188 29.988281 187.621094 22.78125 187.378906 15.21875 L 186.953125 1.496094 L 171.953125 1.496094 L 175.472656 5.273438 L 170.429688 22.402344 C 164.519531 42.496094 162.84375 46.339844 158.230469 50.4375 L 154.800781 53.476562 L 162.007812 53.476562 C 165.972656 53.476562 169.214844 53.277344 169.214844 53.039062 C 169.214844 52.796875 168.546875 51.734375 167.71875 50.675781 C 166.890625 49.621094 166.222656 47.734375 166.222656 46.492188 C 166.222656 44.058594 175.011719 13.664062 176.058594 12.46875 C 176.070312 12.457031 176.070312 12.457031 176.078125 12.457031 C 176.417969 12.457031 176.6875 21.914062 176.6875 33.792969 C 176.6875 45.792969 176.945312 55.46875 177.277344 55.46875 C 177.277344 55.46875 177.285156 55.46875 177.285156 55.46875 C 177.613281 55.269531 184.09375 45.054688 191.667969 32.796875 C 199.121094 20.730469 205.328125 11.082031 205.628906 11.082031 C 205.636719 11.082031 205.636719 11.082031 205.636719 11.09375 C 205.746094 11.421875 203.324219 19.992188 200.265625 30.148438 C 195.144531 47.128906 194.488281 48.800781 192.054688 51.054688 L 189.402344 53.507812 L 199.230469 53.507812 C 208.675781 53.507812 209.007812 53.457031 207.820312 52.140625 C 205.21875 49.242188 205.558594 46.980469 211.71875 26.390625 C 217.4375 7.246094 217.796875 6.320312 220.507812 3.945312 Z M 223.367188 1.433594 " clip-rule="nonzero"/></clipPath><clipPath id="cc66cd037d"><rect x="0" width="223" y="0" height="56"/></clipPath><clipPath id="e432bd4962"><path d="M 5.277344 57.34375 L 213.820312 57.34375 L 213.820312 58.300781 L 5.277344 58.300781 Z M 5.277344 57.34375 " clip-rule="nonzero"/></clipPath><clipPath id="3d18c0b9ad"><path d="M 0.277344 0.34375 L 208.820312 0.34375 L 208.820312 1.300781 L 0.277344 1.300781 Z M 0.277344 0.34375 " clip-rule="nonzero"/></clipPath><clipPath id="208b2580b0"><rect x="0" width="209" y="0" height="2"/></clipPath><clipPath id="3171f46779"><path d="M 50 62 L 60 62 L 60 72.5 L 50 72.5 Z M 50 62 " clip-rule="nonzero"/></clipPath></defs><g clip-path="url(#e09246f8d1)"><g clip-path="url(#1adaf774c3)"><g transform="matrix(1, 0, 0, 1, 0, 0.000000000000000581)"><g clip-path="url(#cc66cd037d)"><g clip-path="url(#b775087056)"><g clip-path="url(#e96c8b3efe)"><rect x="-49.17" width="321.84" fill="#000000" height="104.759999" y="-16.005" fill-opacity="1"/></g></g></g></g></g></g><g clip-path="url(#e432bd4962)"><g transform="matrix(1, 0, 0, 1, 5, 57)"><g clip-path="url(#208b2580b0)"><g clip-path="url(#3d18c0b9ad)"><rect x="-54.17" width="321.84" fill="#000000" height="104.759999" y="-73.005" fill-opacity="1"/></g></g></g></g><g fill="#000000" fill-opacity="1"><g transform="translate(31.957793, 70.020382)"><g><path d="M 10.203125 -5.5625 C 10.203125 -4.53125 9.925781 -3.578125 9.375 -2.703125 C 8.832031 -1.828125 8.140625 -1.15625 7.296875 -0.6875 C 6.773438 -0.414062 6.234375 -0.234375 5.671875 -0.140625 C 5.117188 -0.046875 4.453125 0 3.671875 0 L 0.359375 0 L 2.46875 -9.140625 L 5.421875 -9.140625 C 6.296875 -9.140625 7 -9.070312 7.53125 -8.9375 C 8.0625 -8.800781 8.492188 -8.617188 8.828125 -8.390625 C 9.273438 -8.078125 9.613281 -7.6875 9.84375 -7.21875 C 10.082031 -6.757812 10.203125 -6.207031 10.203125 -5.5625 Z M 7.734375 -5.359375 C 7.734375 -5.773438 7.65625 -6.128906 7.5 -6.421875 C 7.34375 -6.722656 7.109375 -6.96875 6.796875 -7.15625 C 6.640625 -7.238281 6.484375 -7.300781 6.328125 -7.34375 C 6.179688 -7.382812 6.007812 -7.414062 5.8125 -7.4375 C 5.625 -7.457031 5.410156 -7.46875 5.171875 -7.46875 C 4.929688 -7.46875 4.722656 -7.46875 4.546875 -7.46875 L 4.453125 -7.46875 L 3.109375 -1.671875 L 3.328125 -1.671875 C 3.566406 -1.671875 3.816406 -1.671875 4.078125 -1.671875 C 4.347656 -1.671875 4.566406 -1.679688 4.734375 -1.703125 C 4.953125 -1.722656 5.148438 -1.753906 5.328125 -1.796875 C 5.503906 -1.847656 5.695312 -1.925781 5.90625 -2.03125 C 6.488281 -2.332031 6.9375 -2.78125 7.25 -3.375 C 7.570312 -3.976562 7.734375 -4.640625 7.734375 -5.359375 Z M 7.734375 -5.359375 "/></g></g></g><g fill="#000000" fill-opacity="1"><g transform="translate(42.37902, 70.020382)"><g><path d="M 5.828125 -4.328125 C 5.835938 -4.398438 5.84375 -4.46875 5.84375 -4.53125 C 5.851562 -4.59375 5.859375 -4.65625 5.859375 -4.71875 C 5.859375 -5.039062 5.753906 -5.285156 5.546875 -5.453125 C 5.347656 -5.628906 5.0625 -5.71875 4.6875 -5.71875 C 4.238281 -5.71875 3.859375 -5.59375 3.546875 -5.34375 C 3.234375 -5.101562 3 -4.765625 2.84375 -4.328125 Z M 4.140625 0.1875 C 2.960938 0.1875 2.050781 -0.0703125 1.40625 -0.59375 C 0.769531 -1.113281 0.453125 -1.832031 0.453125 -2.75 C 0.453125 -3.375 0.554688 -3.945312 0.765625 -4.46875 C 0.972656 -4.988281 1.273438 -5.453125 1.671875 -5.859375 C 2.046875 -6.234375 2.515625 -6.535156 3.078125 -6.765625 C 3.648438 -6.992188 4.269531 -7.109375 4.9375 -7.109375 C 5.96875 -7.109375 6.742188 -6.898438 7.265625 -6.484375 C 7.785156 -6.066406 8.046875 -5.453125 8.046875 -4.640625 C 8.046875 -4.359375 8.015625 -4.082031 7.953125 -3.8125 C 7.898438 -3.550781 7.832031 -3.289062 7.75 -3.03125 L 2.625 -3.03125 C 2.625 -3.007812 2.625 -2.988281 2.625 -2.96875 C 2.625 -2.945312 2.625 -2.921875 2.625 -2.890625 C 2.625 -2.410156 2.789062 -2.035156 3.125 -1.765625 C 3.46875 -1.503906 3.984375 -1.375 4.671875 -1.375 C 5.148438 -1.375 5.601562 -1.453125 6.03125 -1.609375 C 6.46875 -1.773438 6.847656 -1.957031 7.171875 -2.15625 L 7.421875 -2.15625 L 7 -0.390625 C 6.570312 -0.203125 6.117188 -0.0625 5.640625 0.03125 C 5.171875 0.132812 4.671875 0.1875 4.140625 0.1875 Z M 4.140625 0.1875 "/></g></g></g><g clip-path="url(#3171f46779)"><g fill="#000000" fill-opacity="1"><g transform="translate(50.716001, 70.020382)"><g><path d="M 8.375 -4.6875 C 8.375 -4.050781 8.269531 -3.4375 8.0625 -2.84375 C 7.863281 -2.25 7.582031 -1.738281 7.21875 -1.3125 C 6.851562 -0.851562 6.4375 -0.492188 5.96875 -0.234375 C 5.5 0.015625 4.972656 0.140625 4.390625 0.140625 C 4.023438 0.140625 3.6875 0.0976562 3.375 0.015625 C 3.0625 -0.0664062 2.785156 -0.1875 2.546875 -0.34375 L 1.875 2.53125 L -0.34375 2.53125 L 1.828125 -6.890625 L 4.046875 -6.890625 L 3.890625 -6.171875 C 4.304688 -6.453125 4.691406 -6.671875 5.046875 -6.828125 C 5.398438 -6.992188 5.789062 -7.078125 6.21875 -7.078125 C 6.914062 -7.078125 7.445312 -6.863281 7.8125 -6.4375 C 8.1875 -6.019531 8.375 -5.4375 8.375 -4.6875 Z M 5.5 -2.265625 C 5.675781 -2.523438 5.8125 -2.828125 5.90625 -3.171875 C 6 -3.515625 6.046875 -3.890625 6.046875 -4.296875 C 6.046875 -4.671875 5.960938 -4.957031 5.796875 -5.15625 C 5.640625 -5.351562 5.347656 -5.453125 4.921875 -5.453125 C 4.703125 -5.453125 4.488281 -5.410156 4.28125 -5.328125 C 4.070312 -5.253906 3.851562 -5.160156 3.625 -5.046875 L 2.828125 -1.578125 C 2.960938 -1.515625 3.113281 -1.46875 3.28125 -1.4375 C 3.457031 -1.414062 3.640625 -1.40625 3.828125 -1.40625 C 4.191406 -1.40625 4.515625 -1.484375 4.796875 -1.640625 C 5.085938 -1.796875 5.320312 -2.003906 5.5 -2.265625 Z M 5.5 -2.265625 "/></g></g></g></g><g fill="#000000" fill-opacity="1"><g transform="translate(59.494352, 70.020382)"><g><path d="M 5.171875 -3.25 C 4.773438 -3.21875 4.40625 -3.175781 4.0625 -3.125 C 3.71875 -3.082031 3.425781 -3.019531 3.1875 -2.9375 C 2.9375 -2.84375 2.742188 -2.710938 2.609375 -2.546875 C 2.484375 -2.390625 2.421875 -2.175781 2.421875 -1.90625 C 2.421875 -1.664062 2.503906 -1.5 2.671875 -1.40625 C 2.847656 -1.3125 3.101562 -1.265625 3.4375 -1.265625 C 3.65625 -1.265625 3.890625 -1.3125 4.140625 -1.40625 C 4.390625 -1.507812 4.617188 -1.640625 4.828125 -1.796875 Z M 4.59375 -0.734375 C 4.445312 -0.640625 4.273438 -0.53125 4.078125 -0.40625 C 3.890625 -0.28125 3.710938 -0.179688 3.546875 -0.109375 C 3.316406 -0.015625 3.097656 0.0546875 2.890625 0.109375 C 2.691406 0.160156 2.414062 0.1875 2.0625 0.1875 C 1.488281 0.1875 1.019531 0.0234375 0.65625 -0.296875 C 0.289062 -0.617188 0.109375 -1.035156 0.109375 -1.546875 C 0.109375 -2.097656 0.238281 -2.5625 0.5 -2.9375 C 0.757812 -3.3125 1.144531 -3.613281 1.65625 -3.84375 C 2.125 -4.050781 2.6875 -4.203125 3.34375 -4.296875 C 4 -4.390625 4.710938 -4.460938 5.484375 -4.515625 C 5.484375 -4.535156 5.488281 -4.570312 5.5 -4.625 C 5.507812 -4.6875 5.515625 -4.75 5.515625 -4.8125 C 5.515625 -5.101562 5.378906 -5.304688 5.109375 -5.421875 C 4.847656 -5.535156 4.445312 -5.59375 3.90625 -5.59375 C 3.539062 -5.59375 3.140625 -5.53125 2.703125 -5.40625 C 2.265625 -5.289062 1.9375 -5.191406 1.71875 -5.109375 L 1.515625 -5.109375 L 1.828125 -6.734375 C 2.085938 -6.804688 2.488281 -6.878906 3.03125 -6.953125 C 3.570312 -7.035156 4.109375 -7.078125 4.640625 -7.078125 C 5.722656 -7.078125 6.515625 -6.9375 7.015625 -6.65625 C 7.523438 -6.375 7.78125 -5.9375 7.78125 -5.34375 C 7.78125 -5.257812 7.769531 -5.148438 7.75 -5.015625 C 7.738281 -4.890625 7.722656 -4.78125 7.703125 -4.6875 L 6.625 0 L 4.421875 0 Z M 4.59375 -0.734375 "/></g></g></g><g fill="#000000" fill-opacity="1"><g transform="translate(67.880374, 70.020382)"><g><path d="M 6.359375 -4.78125 L 6.15625 -4.78125 C 6.0625 -4.8125 5.921875 -4.832031 5.734375 -4.84375 C 5.554688 -4.863281 5.378906 -4.875 5.203125 -4.875 C 4.910156 -4.875 4.628906 -4.851562 4.359375 -4.8125 C 4.097656 -4.769531 3.820312 -4.703125 3.53125 -4.609375 L 2.46875 0 L 0.25 0 L 1.84375 -6.890625 L 4.0625 -6.890625 L 3.828125 -5.875 C 4.242188 -6.1875 4.660156 -6.4375 5.078125 -6.625 C 5.492188 -6.8125 5.910156 -6.90625 6.328125 -6.90625 C 6.410156 -6.90625 6.5 -6.90625 6.59375 -6.90625 C 6.6875 -6.90625 6.769531 -6.898438 6.84375 -6.890625 Z M 6.359375 -4.78125 "/></g></g></g><g fill="#000000" fill-opacity="1"><g transform="translate(74.12085, 70.020382)"><g><path d="M 2.890625 0.140625 C 2.117188 0.140625 1.570312 0.015625 1.25 -0.234375 C 0.925781 -0.492188 0.765625 -0.867188 0.765625 -1.359375 C 0.765625 -1.492188 0.773438 -1.617188 0.796875 -1.734375 C 0.816406 -1.859375 0.84375 -2.003906 0.875 -2.171875 L 1.625 -5.4375 L 0.71875 -5.4375 L 1.046875 -6.890625 L 1.953125 -6.890625 L 2.40625 -8.859375 L 4.625 -8.859375 L 4.171875 -6.890625 L 6.25 -6.890625 L 5.90625 -5.4375 L 3.828125 -5.4375 L 3.265625 -2.953125 C 3.222656 -2.773438 3.179688 -2.597656 3.140625 -2.421875 C 3.109375 -2.253906 3.09375 -2.109375 3.09375 -1.984375 C 3.09375 -1.742188 3.160156 -1.570312 3.296875 -1.46875 C 3.429688 -1.375 3.644531 -1.328125 3.9375 -1.328125 C 4.050781 -1.328125 4.195312 -1.347656 4.375 -1.390625 C 4.5625 -1.429688 4.710938 -1.484375 4.828125 -1.546875 L 5.015625 -1.546875 L 4.671875 -0.0625 C 4.421875 0 4.15625 0.046875 3.875 0.078125 C 3.601562 0.117188 3.273438 0.140625 2.890625 0.140625 Z M 2.890625 0.140625 "/></g></g></g><g fill="#000000" fill-opacity="1"><g transform="translate(79.84027, 70.020382)"><g><path d="M 5.171875 -3.25 C 4.773438 -3.21875 4.40625 -3.175781 4.0625 -3.125 C 3.71875 -3.082031 3.425781 -3.019531 3.1875 -2.9375 C 2.9375 -2.84375 2.742188 -2.710938 2.609375 -2.546875 C 2.484375 -2.390625 2.421875 -2.175781 2.421875 -1.90625 C 2.421875 -1.664062 2.503906 -1.5 2.671875 -1.40625 C 2.847656 -1.3125 3.101562 -1.265625 3.4375 -1.265625 C 3.65625 -1.265625 3.890625 -1.3125 4.140625 -1.40625 C 4.390625 -1.507812 4.617188 -1.640625 4.828125 -1.796875 Z M 4.59375 -0.734375 C 4.445312 -0.640625 4.273438 -0.53125 4.078125 -0.40625 C 3.890625 -0.28125 3.710938 -0.179688 3.546875 -0.109375 C 3.316406 -0.015625 3.097656 0.0546875 2.890625 0.109375 C 2.691406 0.160156 2.414062 0.1875 2.0625 0.1875 C 1.488281 0.1875 1.019531 0.0234375 0.65625 -0.296875 C 0.289062 -0.617188 0.109375 -1.035156 0.109375 -1.546875 C 0.109375 -2.097656 0.238281 -2.5625 0.5 -2.9375 C 0.757812 -3.3125 1.144531 -3.613281 1.65625 -3.84375 C 2.125 -4.050781 2.6875 -4.203125 3.34375 -4.296875 C 4 -4.390625 4.710938 -4.460938 5.484375 -4.515625 C 5.484375 -4.535156 5.488281 -4.570312 5.5 -4.625 C 5.507812 -4.6875 5.515625 -4.75 5.515625 -4.8125 C 5.515625 -5.101562 5.378906 -5.304688 5.109375 -5.421875 C 4.847656 -5.535156 4.445312 -5.59375 3.90625 -5.59375 C 3.539062 -5.59375 3.140625 -5.53125 2.703125 -5.40625 C 2.265625 -5.289062 1.9375 -5.191406 1.71875 -5.109375 L 1.515625 -5.109375 L 1.828125 -6.734375 C 2.085938 -6.804688 2.488281 -6.878906 3.03125 -6.953125 C 3.570312 -7.035156 4.109375 -7.078125 4.640625 -7.078125 C 5.722656 -7.078125 6.515625 -6.9375 7.015625 -6.65625 C 7.523438 -6.375 7.78125 -5.9375 7.78125 -5.34375 C 7.78125 -5.257812 7.769531 -5.148438 7.75 -5.015625 C 7.738281 -4.890625 7.722656 -4.78125 7.703125 -4.6875 L 6.625 0 L 4.421875 0 Z M 4.59375 -0.734375 "/></g></g></g><g fill="#000000" fill-opacity="1"><g transform="translate(88.226292, 70.020382)"><g><path d="M 12.671875 -5.359375 C 12.671875 -5.234375 12.660156 -5.09375 12.640625 -4.9375 C 12.617188 -4.789062 12.59375 -4.640625 12.5625 -4.484375 L 11.515625 0 L 9.28125 0 L 10.078125 -3.4375 C 10.140625 -3.675781 10.191406 -3.90625 10.234375 -4.125 C 10.273438 -4.34375 10.296875 -4.519531 10.296875 -4.65625 C 10.296875 -4.882812 10.226562 -5.054688 10.09375 -5.171875 C 9.96875 -5.285156 9.734375 -5.34375 9.390625 -5.34375 C 9.234375 -5.34375 9.050781 -5.300781 8.84375 -5.21875 C 8.644531 -5.144531 8.40625 -5.03125 8.125 -4.875 L 7 0 L 4.765625 0 L 5.5625 -3.4375 C 5.601562 -3.632812 5.644531 -3.847656 5.6875 -4.078125 C 5.738281 -4.316406 5.765625 -4.5 5.765625 -4.625 C 5.765625 -4.875 5.703125 -5.054688 5.578125 -5.171875 C 5.453125 -5.285156 5.21875 -5.34375 4.875 -5.34375 C 4.695312 -5.34375 4.503906 -5.300781 4.296875 -5.21875 C 4.085938 -5.132812 3.851562 -5.019531 3.59375 -4.875 L 2.46875 0 L 0.25 0 L 1.84375 -6.890625 L 4.0625 -6.890625 L 3.890625 -6.125 C 4.335938 -6.425781 4.738281 -6.660156 5.09375 -6.828125 C 5.457031 -6.992188 5.851562 -7.078125 6.28125 -7.078125 C 6.726562 -7.078125 7.109375 -6.972656 7.421875 -6.765625 C 7.734375 -6.566406 7.953125 -6.269531 8.078125 -5.875 C 8.617188 -6.28125 9.101562 -6.582031 9.53125 -6.78125 C 9.96875 -6.976562 10.390625 -7.078125 10.796875 -7.078125 C 11.398438 -7.078125 11.863281 -6.925781 12.1875 -6.625 C 12.507812 -6.332031 12.671875 -5.910156 12.671875 -5.359375 Z M 12.671875 -5.359375 "/></g></g></g><g fill="#000000" fill-opacity="1"><g transform="translate(101.510297, 70.020382)"><g><path d="M 5.828125 -4.328125 C 5.835938 -4.398438 5.84375 -4.46875 5.84375 -4.53125 C 5.851562 -4.59375 5.859375 -4.65625 5.859375 -4.71875 C 5.859375 -5.039062 5.753906 -5.285156 5.546875 -5.453125 C 5.347656 -5.628906 5.0625 -5.71875 4.6875 -5.71875 C 4.238281 -5.71875 3.859375 -5.59375 3.546875 -5.34375 C 3.234375 -5.101562 3 -4.765625 2.84375 -4.328125 Z M 4.140625 0.1875 C 2.960938 0.1875 2.050781 -0.0703125 1.40625 -0.59375 C 0.769531 -1.113281 0.453125 -1.832031 0.453125 -2.75 C 0.453125 -3.375 0.554688 -3.945312 0.765625 -4.46875 C 0.972656 -4.988281 1.273438 -5.453125 1.671875 -5.859375 C 2.046875 -6.234375 2.515625 -6.535156 3.078125 -6.765625 C 3.648438 -6.992188 4.269531 -7.109375 4.9375 -7.109375 C 5.96875 -7.109375 6.742188 -6.898438 7.265625 -6.484375 C 7.785156 -6.066406 8.046875 -5.453125 8.046875 -4.640625 C 8.046875 -4.359375 8.015625 -4.082031 7.953125 -3.8125 C 7.898438 -3.550781 7.832031 -3.289062 7.75 -3.03125 L 2.625 -3.03125 C 2.625 -3.007812 2.625 -2.988281 2.625 -2.96875 C 2.625 -2.945312 2.625 -2.921875 2.625 -2.890625 C 2.625 -2.410156 2.789062 -2.035156 3.125 -1.765625 C 3.46875 -1.503906 3.984375 -1.375 4.671875 -1.375 C 5.148438 -1.375 5.601562 -1.453125 6.03125 -1.609375 C 6.46875 -1.773438 6.847656 -1.957031 7.171875 -2.15625 L 7.421875 -2.15625 L 7 -0.390625 C 6.570312 -0.203125 6.117188 -0.0625 5.640625 0.03125 C 5.171875 0.132812 4.671875 0.1875 4.140625 0.1875 Z M 4.140625 0.1875 "/></g></g></g><g fill="#000000" fill-opacity="1"><g transform="translate(109.847278, 70.020382)"><g><path d="M 8.3125 -5.328125 C 8.3125 -5.203125 8.300781 -5.066406 8.28125 -4.921875 C 8.269531 -4.785156 8.242188 -4.640625 8.203125 -4.484375 L 7.171875 0 L 4.9375 0 L 5.734375 -3.421875 C 5.785156 -3.671875 5.828125 -3.882812 5.859375 -4.0625 C 5.890625 -4.25 5.90625 -4.414062 5.90625 -4.5625 C 5.90625 -4.832031 5.835938 -5.03125 5.703125 -5.15625 C 5.578125 -5.28125 5.332031 -5.34375 4.96875 -5.34375 C 4.789062 -5.34375 4.585938 -5.300781 4.359375 -5.21875 C 4.128906 -5.144531 3.875 -5.03125 3.59375 -4.875 L 2.46875 0 L 0.25 0 L 1.828125 -6.890625 L 4.046875 -6.890625 L 3.875 -6.125 C 4.332031 -6.425781 4.75 -6.660156 5.125 -6.828125 C 5.5 -6.992188 5.910156 -7.078125 6.359375 -7.078125 C 6.972656 -7.078125 7.453125 -6.925781 7.796875 -6.625 C 8.140625 -6.332031 8.3125 -5.898438 8.3125 -5.328125 Z M 8.3125 -5.328125 "/></g></g></g><g fill="#000000" fill-opacity="1"><g transform="translate(118.791148, 70.020382)"><g><path d="M 2.890625 0.140625 C 2.117188 0.140625 1.570312 0.015625 1.25 -0.234375 C 0.925781 -0.492188 0.765625 -0.867188 0.765625 -1.359375 C 0.765625 -1.492188 0.773438 -1.617188 0.796875 -1.734375 C 0.816406 -1.859375 0.84375 -2.003906 0.875 -2.171875 L 1.625 -5.4375 L 0.71875 -5.4375 L 1.046875 -6.890625 L 1.953125 -6.890625 L 2.40625 -8.859375 L 4.625 -8.859375 L 4.171875 -6.890625 L 6.25 -6.890625 L 5.90625 -5.4375 L 3.828125 -5.4375 L 3.265625 -2.953125 C 3.222656 -2.773438 3.179688 -2.597656 3.140625 -2.421875 C 3.109375 -2.253906 3.09375 -2.109375 3.09375 -1.984375 C 3.09375 -1.742188 3.160156 -1.570312 3.296875 -1.46875 C 3.429688 -1.375 3.644531 -1.328125 3.9375 -1.328125 C 4.050781 -1.328125 4.195312 -1.347656 4.375 -1.390625 C 4.5625 -1.429688 4.710938 -1.484375 4.828125 -1.546875 L 5.015625 -1.546875 L 4.671875 -0.0625 C 4.421875 0 4.15625 0.046875 3.875 0.078125 C 3.601562 0.117188 3.273438 0.140625 2.890625 0.140625 Z M 2.890625 0.140625 "/></g></g></g><g fill="#000000" fill-opacity="1"><g transform="translate(124.510568, 70.020382)"><g><path d="M 8.1875 -4.375 C 8.1875 -3.71875 8.078125 -3.109375 7.859375 -2.546875 C 7.640625 -1.984375 7.335938 -1.5 6.953125 -1.09375 C 6.546875 -0.675781 6.070312 -0.351562 5.53125 -0.125 C 4.988281 0.101562 4.359375 0.21875 3.640625 0.21875 C 2.609375 0.21875 1.816406 -0.0234375 1.265625 -0.515625 C 0.722656 -1.003906 0.453125 -1.6875 0.453125 -2.5625 C 0.453125 -3.175781 0.550781 -3.757812 0.75 -4.3125 C 0.957031 -4.863281 1.265625 -5.347656 1.671875 -5.765625 C 2.054688 -6.179688 2.53125 -6.507812 3.09375 -6.75 C 3.664062 -6.988281 4.300781 -7.109375 5 -7.109375 C 6.03125 -7.109375 6.816406 -6.863281 7.359375 -6.375 C 7.910156 -5.894531 8.1875 -5.226562 8.1875 -4.375 Z M 5.3125 -2.109375 C 5.5 -2.398438 5.640625 -2.710938 5.734375 -3.046875 C 5.835938 -3.390625 5.890625 -3.800781 5.890625 -4.28125 C 5.890625 -4.707031 5.796875 -5.03125 5.609375 -5.25 C 5.429688 -5.476562 5.140625 -5.59375 4.734375 -5.59375 C 4.421875 -5.59375 4.144531 -5.515625 3.90625 -5.359375 C 3.675781 -5.210938 3.472656 -5.003906 3.296875 -4.734375 C 3.128906 -4.472656 2.992188 -4.148438 2.890625 -3.765625 C 2.796875 -3.390625 2.75 -3 2.75 -2.59375 C 2.75 -2.125 2.851562 -1.785156 3.0625 -1.578125 C 3.269531 -1.378906 3.554688 -1.28125 3.921875 -1.28125 C 4.191406 -1.28125 4.445312 -1.351562 4.6875 -1.5 C 4.9375 -1.644531 5.144531 -1.847656 5.3125 -2.109375 Z M 5.3125 -2.109375 "/></g></g></g><g fill="#000000" fill-opacity="1"><g transform="translate(133.117275, 70.020382)"><g/></g></g><g fill="#000000" fill-opacity="1"><g transform="translate(137.408369, 70.020382)"><g><path d="M 9.21875 -7.359375 L 6.375 -7.359375 L 4.6875 0 L 2.3125 0 L 4.015625 -7.359375 L 1.171875 -7.359375 L 1.578125 -9.140625 L 9.625 -9.140625 Z M 9.21875 -7.359375 "/></g></g></g><g fill="#000000" fill-opacity="1"><g transform="translate(145.966035, 70.020382)"><g><path d="M 5.828125 -4.328125 C 5.835938 -4.398438 5.84375 -4.46875 5.84375 -4.53125 C 5.851562 -4.59375 5.859375 -4.65625 5.859375 -4.71875 C 5.859375 -5.039062 5.753906 -5.285156 5.546875 -5.453125 C 5.347656 -5.628906 5.0625 -5.71875 4.6875 -5.71875 C 4.238281 -5.71875 3.859375 -5.59375 3.546875 -5.34375 C 3.234375 -5.101562 3 -4.765625 2.84375 -4.328125 Z M 4.140625 0.1875 C 2.960938 0.1875 2.050781 -0.0703125 1.40625 -0.59375 C 0.769531 -1.113281 0.453125 -1.832031 0.453125 -2.75 C 0.453125 -3.375 0.554688 -3.945312 0.765625 -4.46875 C 0.972656 -4.988281 1.273438 -5.453125 1.671875 -5.859375 C 2.046875 -6.234375 2.515625 -6.535156 3.078125 -6.765625 C 3.648438 -6.992188 4.269531 -7.109375 4.9375 -7.109375 C 5.96875 -7.109375 6.742188 -6.898438 7.265625 -6.484375 C 7.785156 -6.066406 8.046875 -5.453125 8.046875 -4.640625 C 8.046875 -4.359375 8.015625 -4.082031 7.953125 -3.8125 C 7.898438 -3.550781 7.832031 -3.289062 7.75 -3.03125 L 2.625 -3.03125 C 2.625 -3.007812 2.625 -2.988281 2.625 -2.96875 C 2.625 -2.945312 2.625 -2.921875 2.625 -2.890625 C 2.625 -2.410156 2.789062 -2.035156 3.125 -1.765625 C 3.46875 -1.503906 3.984375 -1.375 4.671875 -1.375 C 5.148438 -1.375 5.601562 -1.453125 6.03125 -1.609375 C 6.46875 -1.773438 6.847656 -1.957031 7.171875 -2.15625 L 7.421875 -2.15625 L 7 -0.390625 C 6.570312 -0.203125 6.117188 -0.0625 5.640625 0.03125 C 5.171875 0.132812 4.671875 0.1875 4.140625 0.1875 Z M 7.765625 -10.15625 L 5.09375 -7.875 L 3.515625 -7.875 L 5.4375 -10.28125 L 7.765625 -10.28125 Z M 7.765625 -10.15625 "/></g></g></g><g fill="#000000" fill-opacity="1"><g transform="translate(154.303016, 70.020382)"><g><path d="M 3.796875 0.1875 C 3.328125 0.1875 2.882812 0.125 2.46875 0 C 2.0625 -0.113281 1.707031 -0.289062 1.40625 -0.53125 C 1.101562 -0.769531 0.867188 -1.070312 0.703125 -1.4375 C 0.535156 -1.800781 0.453125 -2.222656 0.453125 -2.703125 C 0.453125 -3.316406 0.566406 -3.890625 0.796875 -4.421875 C 1.035156 -4.953125 1.367188 -5.414062 1.796875 -5.8125 C 2.210938 -6.195312 2.71875 -6.503906 3.3125 -6.734375 C 3.914062 -6.960938 4.570312 -7.078125 5.28125 -7.078125 C 5.695312 -7.078125 6.113281 -7.03125 6.53125 -6.9375 C 6.945312 -6.84375 7.332031 -6.707031 7.6875 -6.53125 L 7.21875 -4.640625 L 6.90625 -4.640625 C 6.664062 -4.929688 6.390625 -5.144531 6.078125 -5.28125 C 5.773438 -5.425781 5.4375 -5.5 5.0625 -5.5 C 4.363281 -5.5 3.800781 -5.253906 3.375 -4.765625 C 2.957031 -4.273438 2.75 -3.660156 2.75 -2.921875 C 2.75 -2.410156 2.878906 -2.023438 3.140625 -1.765625 C 3.398438 -1.515625 3.804688 -1.390625 4.359375 -1.390625 C 4.785156 -1.390625 5.171875 -1.472656 5.515625 -1.640625 C 5.867188 -1.816406 6.171875 -2.015625 6.421875 -2.234375 L 6.734375 -2.234375 L 6.265625 -0.34375 C 5.816406 -0.15625 5.425781 -0.0195312 5.09375 0.0625 C 4.757812 0.144531 4.328125 0.1875 3.796875 0.1875 Z M 3.796875 0.1875 "/></g></g></g><g fill="#000000" fill-opacity="1"><g transform="translate(161.689832, 70.020382)"><g><path d="M 8.3125 -5.328125 C 8.3125 -5.203125 8.300781 -5.066406 8.28125 -4.921875 C 8.269531 -4.785156 8.242188 -4.640625 8.203125 -4.484375 L 7.171875 0 L 4.9375 0 L 5.734375 -3.421875 C 5.785156 -3.671875 5.828125 -3.882812 5.859375 -4.0625 C 5.890625 -4.25 5.90625 -4.414062 5.90625 -4.5625 C 5.90625 -4.832031 5.835938 -5.03125 5.703125 -5.15625 C 5.578125 -5.28125 5.332031 -5.34375 4.96875 -5.34375 C 4.789062 -5.34375 4.585938 -5.300781 4.359375 -5.21875 C 4.128906 -5.144531 3.875 -5.03125 3.59375 -4.875 L 2.46875 0 L 0.25 0 L 1.828125 -6.890625 L 4.046875 -6.890625 L 3.875 -6.125 C 4.332031 -6.425781 4.75 -6.660156 5.125 -6.828125 C 5.5 -6.992188 5.910156 -7.078125 6.359375 -7.078125 C 6.972656 -7.078125 7.453125 -6.925781 7.796875 -6.625 C 8.140625 -6.332031 8.3125 -5.898438 8.3125 -5.328125 Z M 8.3125 -5.328125 "/></g></g></g><g fill="#000000" fill-opacity="1"><g transform="translate(170.633703, 70.020382)"><g><path d="M 4.0625 -6.890625 L 2.46875 0 L 0.25 0 L 1.84375 -6.890625 Z M 4.734375 -9.546875 L 4.34375 -7.875 L 2 -7.875 L 2.390625 -9.546875 Z M 4.734375 -9.546875 "/></g></g></g><g fill="#000000" fill-opacity="1"><g transform="translate(174.924796, 70.020382)"><g><path d="M 3.796875 0.1875 C 3.328125 0.1875 2.882812 0.125 2.46875 0 C 2.0625 -0.113281 1.707031 -0.289062 1.40625 -0.53125 C 1.101562 -0.769531 0.867188 -1.070312 0.703125 -1.4375 C 0.535156 -1.800781 0.453125 -2.222656 0.453125 -2.703125 C 0.453125 -3.316406 0.566406 -3.890625 0.796875 -4.421875 C 1.035156 -4.953125 1.367188 -5.414062 1.796875 -5.8125 C 2.210938 -6.195312 2.71875 -6.503906 3.3125 -6.734375 C 3.914062 -6.960938 4.570312 -7.078125 5.28125 -7.078125 C 5.695312 -7.078125 6.113281 -7.03125 6.53125 -6.9375 C 6.945312 -6.84375 7.332031 -6.707031 7.6875 -6.53125 L 7.21875 -4.640625 L 6.90625 -4.640625 C 6.664062 -4.929688 6.390625 -5.144531 6.078125 -5.28125 C 5.773438 -5.425781 5.4375 -5.5 5.0625 -5.5 C 4.363281 -5.5 3.800781 -5.253906 3.375 -4.765625 C 2.957031 -4.273438 2.75 -3.660156 2.75 -2.921875 C 2.75 -2.410156 2.878906 -2.023438 3.140625 -1.765625 C 3.398438 -1.515625 3.804688 -1.390625 4.359375 -1.390625 C 4.785156 -1.390625 5.171875 -1.472656 5.515625 -1.640625 C 5.867188 -1.816406 6.171875 -2.015625 6.421875 -2.234375 L 6.734375 -2.234375 L 6.265625 -0.34375 C 5.816406 -0.15625 5.425781 -0.0195312 5.09375 0.0625 C 4.757812 0.144531 4.328125 0.1875 3.796875 0.1875 Z M 3.796875 0.1875 "/></g></g></g><g fill="#000000" fill-opacity="1"><g transform="translate(182.311612, 70.020382)"><g><path d="M 8.1875 -4.375 C 8.1875 -3.71875 8.078125 -3.109375 7.859375 -2.546875 C 7.640625 -1.984375 7.335938 -1.5 6.953125 -1.09375 C 6.546875 -0.675781 6.070312 -0.351562 5.53125 -0.125 C 4.988281 0.101562 4.359375 0.21875 3.640625 0.21875 C 2.609375 0.21875 1.816406 -0.0234375 1.265625 -0.515625 C 0.722656 -1.003906 0.453125 -1.6875 0.453125 -2.5625 C 0.453125 -3.175781 0.550781 -3.757812 0.75 -4.3125 C 0.957031 -4.863281 1.265625 -5.347656 1.671875 -5.765625 C 2.054688 -6.179688 2.53125 -6.507812 3.09375 -6.75 C 3.664062 -6.988281 4.300781 -7.109375 5 -7.109375 C 6.03125 -7.109375 6.816406 -6.863281 7.359375 -6.375 C 7.910156 -5.894531 8.1875 -5.226562 8.1875 -4.375 Z M 5.3125 -2.109375 C 5.5 -2.398438 5.640625 -2.710938 5.734375 -3.046875 C 5.835938 -3.390625 5.890625 -3.800781 5.890625 -4.28125 C 5.890625 -4.707031 5.796875 -5.03125 5.609375 -5.25 C 5.429688 -5.476562 5.140625 -5.59375 4.734375 -5.59375 C 4.421875 -5.59375 4.144531 -5.515625 3.90625 -5.359375 C 3.675781 -5.210938 3.472656 -5.003906 3.296875 -4.734375 C 3.128906 -4.472656 2.992188 -4.148438 2.890625 -3.765625 C 2.796875 -3.390625 2.75 -3 2.75 -2.59375 C 2.75 -2.125 2.851562 -1.785156 3.0625 -1.578125 C 3.269531 -1.378906 3.554688 -1.28125 3.921875 -1.28125 C 4.191406 -1.28125 4.445312 -1.351562 4.6875 -1.5 C 4.9375 -1.644531 5.144531 -1.847656 5.3125 -2.109375 Z M 5.3125 -2.109375 "/></g></g></g></svg>